<svg width="106" height="36" viewBox="0 0 106 36" fill="none" xmlns="http://www.w3.org/2000/svg">
<path d="M101.957 15.9894C102.523 14.9304 102.845 13.72 102.845 12.4341C102.845 8.24548 99.4492 4.8498 95.2606 4.8498C94.549 4.8498 93.8626 4.94786 93.2098 5.13277C91.8369 2.8942 89.363 1.40088 86.5417 1.40088C82.2186 1.40088 78.7165 4.90863 78.7165 9.23169C78.7165 10.2179 78.8986 11.1621 79.2348 12.0306C75.8671 12.7563 73.3428 15.7569 73.3428 19.3459C73.3428 21.6349 74.371 23.6886 75.9932 25.0586C75.9204 25.4649 75.8811 25.8851 75.8811 26.3138C75.8811 30.3146 79.1255 33.5562 83.1236 33.5562C84.2639 33.5562 85.3397 33.2929 86.2979 32.825C87.371 34.1642 89.024 35.0215 90.8731 35.0215C93.1593 35.0215 95.143 33.7159 96.1124 31.8023C96.5242 31.8668 96.9501 31.8976 97.3843 31.8976C102.142 31.8976 106 28.0424 106 23.2823C106 20.206 104.386 17.5024 101.954 15.9838L101.957 15.9894Z" fill="#578246"/>
<path d="M101.957 14.5886C102.523 13.5295 102.845 12.3192 102.845 11.0332C102.845 6.8446 99.4492 3.44892 95.2606 3.44892C94.549 3.44892 93.8626 3.54698 93.2098 3.73189C91.8369 1.49332 89.363 0 86.5417 0C82.2186 0 78.7165 3.50775 78.7165 7.83081C78.7165 8.81701 78.8986 9.76119 79.2348 10.6297C75.8671 11.3554 73.3428 14.356 73.3428 17.945C73.3428 20.234 74.371 22.2877 75.9932 23.6577C75.9204 24.064 75.8811 24.4842 75.8811 24.9129C75.8811 28.9138 79.1255 32.1553 83.1236 32.1553C84.2639 32.1553 85.3397 31.892 86.2979 31.4241C87.371 32.7633 89.024 33.6206 90.8731 33.6206C93.1593 33.6206 95.143 32.315 96.1124 30.4015C96.5242 30.4659 96.9501 30.4967 97.3843 30.4967C102.142 30.4967 106 26.6416 106 21.8814C106 18.8051 104.386 16.1015 101.954 14.583L101.957 14.5886Z" fill="#99C08E"/>
<path d="M84.9561 21.4862C84.8748 21.4862 84.76 21.4918 84.6143 21.5059C84.4658 21.5199 84.3593 21.5255 84.2921 21.5255C84.0371 21.5255 83.8522 21.4582 83.7373 21.3237C83.6225 21.1893 83.5664 20.9735 83.5664 20.6793C83.5664 20.5981 83.6141 20.175 83.7065 19.4074C84.6479 19.0992 85.5697 18.9423 86.469 18.9423C86.5363 18.9423 86.6371 18.9451 86.7716 18.9535C86.9061 18.9591 87.0126 18.9647 87.0938 18.9647L88.5059 18.8834C88.4526 18.763 88.4218 18.5977 88.4162 18.3903C88.4106 18.183 88.3854 18.0205 88.3462 17.9056C88.3069 17.7908 88.2173 17.7263 88.0828 17.7151C87.8811 17.6759 87.0546 17.6367 85.6005 17.6031C84.1492 17.5694 83.3003 17.5666 83.0593 17.5919C82.7511 17.6451 82.485 17.6619 82.2636 17.6423C82.0423 17.6227 81.877 17.477 81.7705 17.208C81.5688 16.7653 81.5072 16.2666 81.5884 15.7147C81.6164 15.5802 81.7285 15.4457 81.9302 15.3113C82.132 15.1768 82.6027 15.0703 83.3423 14.9891C84.082 14.9078 84.6059 14.8938 84.9169 14.9498H87.4496C87.9259 14.9498 88.2593 14.9442 88.447 14.9302C90.921 14.9022 92.347 14.891 92.7225 14.891C93.0979 14.891 93.9188 14.9246 95.1824 14.9919C96.446 15.0591 97.1128 15.0927 97.18 15.0927C97.2472 15.0927 97.3677 15.1123 97.5442 15.1544C97.8272 15.2216 98.0177 15.3197 98.1186 15.4457C98.2194 15.5746 98.2503 15.7791 98.2082 16.0621C98.1942 16.1686 98.1802 16.2638 98.169 16.3451C98.155 16.4263 98.141 16.4992 98.1298 16.5664C98.1158 16.6337 98.0906 16.6897 98.0485 16.7373C98.0093 16.785 97.9813 16.827 97.9673 16.869C97.9533 16.911 97.914 16.9475 97.8468 16.9811C97.7796 17.0147 97.7291 17.0427 97.6955 17.0623C97.6619 17.0819 97.5947 17.1072 97.4938 17.1324C97.3929 17.1604 97.3201 17.18 97.2725 17.194C97.2248 17.208 97.1268 17.2332 96.9811 17.2753C96.8326 17.3145 96.7177 17.3425 96.6393 17.3565C96.4908 17.3957 95.6306 17.4406 94.0561 17.4882C92.4815 17.5358 91.6158 17.5862 91.4533 17.6395C91.4001 17.6535 91.3692 17.7123 91.3636 17.8216C91.358 17.9281 91.358 18.0429 91.3636 18.1634C91.3692 18.2839 91.3664 18.4128 91.3524 18.5472C91.3524 18.5865 91.358 18.6481 91.372 18.7293C91.386 18.8106 91.3917 18.8638 91.3917 18.8918C92.7645 18.9199 93.9412 18.9451 94.9218 18.9731C95.1768 18.9871 95.4121 19.0403 95.6278 19.1356C95.7091 19.1636 95.7791 19.2169 95.8408 19.2981C95.9024 19.3793 95.9304 19.4522 95.9304 19.5194V19.8024C95.9304 20.1918 95.8716 20.5084 95.7595 20.7494C95.6447 20.9903 95.4065 21.1725 95.0423 21.2929C94.975 21.3209 94.7621 21.3378 94.4063 21.3434C94.0505 21.349 93.7227 21.3658 93.4285 21.3938C93.1315 21.4218 92.9858 21.475 92.9858 21.5563C92.9718 21.6235 92.9774 21.73 93.0054 21.8785C93.0335 22.027 93.0447 22.1334 93.0447 22.2007C93.0447 22.2147 93.0503 22.3296 93.0643 22.5425C93.0783 22.7582 93.0839 22.8983 93.0839 22.9656L95.6054 23.128C95.5914 23.3018 95.583 23.6548 95.5746 24.1871C95.5662 24.7194 95.5242 25.1313 95.4429 25.4283C95.4289 25.4815 95.3813 25.5431 95.3028 25.6104C95.2216 25.6776 95.1544 25.7112 95.1011 25.7112C94.9134 25.7252 94.1317 25.7309 92.7617 25.7309C92.4507 25.7309 92.0024 25.7252 91.4113 25.7112C90.8201 25.6972 90.369 25.6916 90.0608 25.6916C89.5621 25.6916 88.8141 25.6944 87.8111 25.7028C86.808 25.7084 86.06 25.714 85.5613 25.714H83.9279C83.7401 25.714 83.5945 25.6608 83.4936 25.5515C83.3927 25.4451 83.3423 25.3022 83.3423 25.1285C83.3423 25.0752 83.3479 25.0136 83.3619 24.9464C83.3619 24.9071 83.3731 24.7671 83.3927 24.5317C83.4123 24.2964 83.4432 24.1255 83.4824 24.0162C83.5889 23.7752 83.7766 23.6127 84.0483 23.5315C84.2893 23.4502 84.6367 23.3634 85.0878 23.2681C85.5389 23.1729 85.805 23.1196 85.8835 23.1056C86.0712 23.0664 86.2085 23.0244 86.2981 22.9852C86.385 22.9459 86.4774 22.8703 86.5699 22.7638C86.6623 22.6574 86.71 22.5145 86.71 22.3408C86.71 22.2455 86.724 22.1446 86.7492 22.0382C86.7772 21.9317 86.8136 21.8056 86.8613 21.6656C86.9089 21.5255 86.9397 21.4274 86.9509 21.3742C86.696 21.4414 86.5615 21.475 86.5475 21.475C86.144 21.489 85.7686 21.4946 85.4184 21.4946H84.9533L84.9561 21.4862ZM87.7998 7.2451C89.2792 7.13863 90.1113 7.077 90.3018 7.06299C90.61 7.06299 90.9546 7.16945 91.33 7.38519C91.4113 7.42441 91.4841 7.50846 91.5513 7.63734C91.6186 7.76622 91.6522 7.88389 91.6522 7.99036C91.6382 8.82527 91.7391 9.57053 91.9548 10.2289C91.994 10.3634 92.3218 10.5763 92.9326 10.8649C93.5434 11.1535 93.9776 11.3328 94.2326 11.4001C95.0787 11.6298 96.149 11.952 97.4406 12.3694C97.6563 12.4367 97.8076 12.5235 97.8944 12.6328C97.9813 12.7393 97.9785 12.9018 97.8832 13.1175C97.844 13.224 97.8048 13.3052 97.7712 13.3585C97.7375 13.4117 97.7095 13.4621 97.6899 13.5097C97.6703 13.5574 97.6395 13.6414 97.6003 13.7619C97.5722 13.8964 97.5442 14.0421 97.5106 14.1962C97.477 14.3503 97.4602 14.4455 97.4602 14.4791C97.4602 14.5128 97.4266 14.5576 97.3593 14.6108C97.2921 14.6641 97.2276 14.6949 97.1688 14.7005C97.1072 14.7061 96.9839 14.7229 96.7962 14.7509C96.7149 14.7649 96.488 14.8097 96.1097 14.8826C95.7343 14.9554 95.4513 14.9947 95.2636 14.9947C94.9806 14.9947 94.6921 14.8798 94.3951 14.6528C94.2466 14.5184 93.4733 14.1093 92.0753 13.4229C90.6772 12.7365 89.7274 12.2798 89.2315 12.05C88.9766 11.9436 88.688 11.9632 88.363 12.1117C87.7298 12.3807 86.9649 12.7645 86.0628 13.2604C85.6453 13.4901 85.1774 13.6975 84.6619 13.8852C84.1436 14.0729 83.7093 14.1541 83.3619 14.1261C83.093 14.0981 82.9108 14.0449 82.8184 13.9636C82.7231 13.8824 82.6559 13.7087 82.6167 13.4397C82.5774 13.21 82.5158 12.9746 82.4346 12.7337C82.3673 12.5039 82.3281 12.3274 82.3141 12.1985C82.3001 12.0697 82.3449 11.9492 82.4458 11.8343C82.5466 11.7194 82.6447 11.6354 82.7371 11.5822C82.8296 11.5289 83.0201 11.4337 83.3031 11.2992C83.7345 11.0694 84.4574 10.7248 85.4716 10.2598C86.4858 9.79467 87.0966 9.51729 87.2983 9.42204C87.5281 9.31557 87.6822 9.16988 87.7634 8.98777C87.8447 8.80566 87.8923 8.57312 87.9035 8.29294C87.9035 8.25372 87.8699 7.9035 87.8026 7.2451H87.7998ZM89.0102 22.7974C89.0102 22.9992 89.1167 23.1 89.3324 23.1H89.4136C89.5061 23.1 89.7134 23.086 90.03 23.0608C90.3466 23.0328 90.5904 23.0132 90.7669 22.9992C90.8061 22.9852 90.8565 22.9599 90.9182 22.9179C90.9798 22.8787 91.0078 22.8451 91.0078 22.8171C91.0218 22.5621 91.0274 22.3127 91.0274 22.0718C91.0274 21.7636 91.0218 21.4526 91.0078 21.1444C91.0078 21.1164 90.9714 21.0828 90.8957 21.0436C90.8229 21.0043 90.7585 20.9819 90.7052 20.9819H90.6856C90.5511 20.9959 90.072 21.0632 89.2539 21.1837C89.1054 22.097 89.0242 22.6013 89.013 22.6966V22.7974H89.0102Z" fill="#578246"/>
<path d="M85.0313 22.6068C84.95 22.6068 84.8352 22.6125 84.6895 22.6265C84.541 22.6405 84.4345 22.6461 84.3673 22.6461C84.1123 22.6461 83.9274 22.5788 83.8125 22.4443C83.6977 22.3099 83.6416 22.0941 83.6416 21.8C83.6416 21.7187 83.6893 21.2956 83.7817 20.528C84.7231 20.2198 85.6449 20.0629 86.5442 20.0629C86.6115 20.0629 86.7123 20.0657 86.8468 20.0741C86.9813 20.0797 87.0878 20.0853 87.169 20.0853L88.5811 20.004C88.5278 19.8836 88.497 19.7183 88.4914 19.5109C88.483 19.3036 88.4606 19.1411 88.4214 19.0262C88.3821 18.9114 88.2925 18.8469 88.158 18.8357C87.9563 18.7965 87.1298 18.7573 85.6757 18.7237C84.2244 18.69 83.3755 18.6872 83.1345 18.7125C82.8263 18.7657 82.5602 18.7825 82.3388 18.7629C82.1175 18.7433 81.9522 18.5976 81.8457 18.3286C81.644 17.886 81.5824 17.3872 81.6636 16.8353C81.6916 16.7008 81.8037 16.5663 82.0054 16.4319C82.2072 16.2974 82.6778 16.1909 83.4175 16.1097C84.1571 16.0284 84.6811 16.0144 84.9921 16.0704H87.5248C88.0011 16.0704 88.3345 16.0648 88.5222 16.0508C90.9961 16.0228 92.4222 16.0116 92.7977 16.0116C93.1731 16.0116 93.994 16.0452 95.2576 16.1125C96.5211 16.1797 97.188 16.2133 97.2552 16.2133C97.3224 16.2133 97.4429 16.2329 97.6194 16.275C97.9024 16.3422 98.0929 16.4403 98.1938 16.5663C98.2946 16.6952 98.3254 16.8997 98.2834 17.1827C98.2694 17.2892 98.2554 17.3844 98.2442 17.4657C98.2302 17.5469 98.2162 17.6198 98.205 17.687C98.191 17.7543 98.1658 17.8103 98.1237 17.8579C98.0845 17.9056 98.0565 17.9476 98.0425 17.9896C98.0285 18.0288 97.9892 18.0681 97.922 18.1017C97.8548 18.1353 97.8043 18.1633 97.7707 18.1829C97.7371 18.2025 97.6698 18.2278 97.569 18.253C97.4681 18.281 97.3953 18.3006 97.3476 18.3146C97.3 18.3286 97.202 18.3538 97.0563 18.3959C96.9106 18.4379 96.7929 18.4631 96.7145 18.4771C96.566 18.5163 95.7058 18.5612 94.1313 18.6088C92.5567 18.6564 91.691 18.7069 91.5285 18.7601C91.4752 18.7741 91.4444 18.8329 91.4388 18.9422C91.4332 19.0487 91.4332 19.1635 91.4388 19.284C91.4444 19.4045 91.4416 19.5334 91.4276 19.6678C91.4276 19.7071 91.4332 19.7687 91.4472 19.85C91.4612 19.9312 91.4668 19.9844 91.4668 20.0125C92.8397 20.0405 94.0164 20.0657 94.997 20.0937C95.252 20.1077 95.4873 20.1609 95.703 20.2562C95.7843 20.2842 95.8543 20.3375 95.916 20.4187C95.9776 20.5 96.0056 20.5728 96.0056 20.64V20.923C96.0056 21.3125 95.9496 21.629 95.8347 21.87C95.7198 22.1109 95.4817 22.2931 95.1175 22.4135C95.0502 22.4415 94.8373 22.4584 94.4815 22.464C94.1257 22.4696 93.7979 22.4864 93.5037 22.5144C93.2067 22.5424 93.061 22.5956 93.061 22.6769C93.047 22.7441 93.0554 22.8506 93.0806 22.9991C93.1086 23.1476 93.1199 23.254 93.1199 23.3213C93.1199 23.3353 93.1255 23.4502 93.1395 23.6631C93.1535 23.8788 93.1591 24.0189 93.1591 24.0862L95.6806 24.2487C95.6666 24.4224 95.6582 24.7754 95.6498 25.3077C95.6442 25.84 95.5994 26.2519 95.5181 26.5489C95.5041 26.6021 95.4565 26.6637 95.378 26.731C95.2968 26.7982 95.2295 26.8318 95.1763 26.8318C94.9886 26.8458 94.2069 26.8515 92.8369 26.8515C92.5287 26.8515 92.0776 26.8458 91.4865 26.8318C90.8953 26.8178 90.4442 26.8122 90.136 26.8122C89.6373 26.8122 88.8893 26.815 87.8862 26.8234C86.8832 26.829 86.1352 26.8346 85.6365 26.8346H84.0031C83.8153 26.8346 83.6697 26.7814 83.5688 26.6721C83.4679 26.5657 83.4175 26.4228 83.4175 26.2491C83.4175 26.1959 83.4231 26.1342 83.4371 26.067C83.4371 26.0277 83.4483 25.8877 83.4679 25.6523C83.4875 25.417 83.5184 25.2461 83.5576 25.1368C83.664 24.8959 83.8546 24.7334 84.1235 24.6521C84.3645 24.5709 84.7119 24.484 85.163 24.3887C85.614 24.2935 85.8802 24.2402 85.9587 24.2262C86.1464 24.187 86.2837 24.145 86.3733 24.1058C86.4602 24.0665 86.5526 23.9909 86.6451 23.8844C86.7375 23.778 86.7852 23.6351 86.7852 23.4614C86.7852 23.3661 86.7992 23.2653 86.8244 23.1588C86.8524 23.0523 86.8888 22.9262 86.9365 22.7862C86.9841 22.6461 87.0149 22.548 87.0261 22.4948C86.7712 22.562 86.6367 22.5956 86.6227 22.5956C86.2192 22.6096 85.8438 22.6153 85.4936 22.6153H85.0285L85.0313 22.6068ZM87.875 8.36571C89.3543 8.25924 90.1864 8.1976 90.377 8.18359C90.6852 8.18359 91.0298 8.29006 91.4052 8.50579C91.4865 8.54502 91.5593 8.62907 91.6265 8.75795C91.6938 8.88683 91.7274 9.0045 91.7274 9.11096C91.7134 9.94587 91.8143 10.6911 92.03 11.3495C92.0692 11.484 92.397 11.697 93.0078 11.9855C93.6186 12.2741 94.0528 12.4534 94.3078 12.5207C95.1539 12.7504 96.2242 13.0726 97.5158 13.4901C97.7315 13.5573 97.8828 13.6441 97.9696 13.7534C98.0565 13.8599 98.0537 14.0224 97.9584 14.2381C97.9192 14.3446 97.88 14.4258 97.8464 14.4791C97.8127 14.5323 97.7847 14.5827 97.7651 14.6304C97.7455 14.678 97.7147 14.762 97.6755 14.8825C97.6474 15.017 97.6166 15.1627 97.5858 15.3168C97.5522 15.4709 97.5354 15.5661 97.5354 15.5997C97.5354 15.6334 97.5017 15.6782 97.4345 15.7314C97.3673 15.7847 97.3028 15.8155 97.244 15.8211C97.1823 15.8267 97.0591 15.8435 96.8714 15.8715C96.7901 15.8855 96.5604 15.9303 96.1849 16.0032C95.8095 16.076 95.5265 16.1153 95.3388 16.1153C95.0558 16.1153 94.7673 16.0004 94.4703 15.7735C94.3218 15.639 93.5485 15.2299 92.1505 14.5435C90.7524 13.8571 89.8026 13.4004 89.3067 13.1707C89.0518 13.0642 88.7632 13.0838 88.4382 13.2323C87.805 13.5013 87.0401 13.8851 86.138 14.381C85.7205 14.6107 85.2526 14.8181 84.7371 15.0058C84.2188 15.1935 83.7845 15.2747 83.4371 15.2467C83.1681 15.2187 82.986 15.1655 82.8936 15.0842C82.7983 15.003 82.7311 14.8293 82.6918 14.5603C82.6526 14.3306 82.591 14.0952 82.5097 13.8543C82.4425 13.6245 82.4033 13.448 82.3893 13.3191C82.3753 13.1903 82.4201 13.0698 82.5209 12.9549C82.6218 12.8401 82.7199 12.756 82.8123 12.7028C82.9076 12.6495 83.0953 12.5543 83.3783 12.4198C83.8097 12.1901 84.5326 11.8454 85.5468 11.3804C86.561 10.9153 87.1718 10.6379 87.3735 10.5426C87.6033 10.4362 87.7574 10.2905 87.8386 10.1084C87.9199 9.92626 87.9675 9.69372 87.9787 9.41355C87.9787 9.37432 87.9451 9.02411 87.8778 8.36571H87.875ZM89.0854 23.9181C89.0854 24.1198 89.1918 24.2206 89.4076 24.2206H89.4888C89.5841 24.2206 89.7886 24.2066 90.1052 24.1814C90.4218 24.1534 90.6655 24.1338 90.8421 24.1198C90.8813 24.1058 90.9317 24.0806 90.9933 24.0385C91.055 23.9965 91.083 23.9657 91.083 23.9377C91.097 23.6827 91.1026 23.4334 91.1026 23.1924C91.1026 22.8842 91.097 22.5732 91.083 22.265C91.083 22.237 91.0466 22.2034 90.9709 22.1642C90.8953 22.125 90.8336 22.1025 90.7804 22.1025H90.7608C90.6263 22.1165 90.15 22.1838 89.3291 22.3043C89.1806 23.2176 89.0994 23.7219 89.0882 23.8172V23.9181H89.0854Z" fill="white"/>
<path d="M11.977 5.62012C12.6886 5.63693 13.6636 5.60612 14.7058 5.62012C16.922 5.65655 22.1724 5.60331 23.2147 9.71344C24.4306 14.5128 23.4472 24.7223 22.9821 26.4201C22.5198 28.1179 21.7101 30.8188 17.5047 30.8188H7.51101C6.81619 30.8188 1.49292 30.5498 0.565549 25.4563C-0.359019 20.3656 0.103265 13.3445 0.209731 11.8203C0.316196 10.299 0.604773 6.09081 5.77395 5.77982C8.98472 5.58931 10.691 5.58931 11.977 5.62012Z" fill="#BC3C6A"/>
<path d="M11.977 4.21925C12.6886 4.23606 13.6636 4.20524 14.7058 4.21925C16.922 4.25567 22.1724 4.20244 23.2147 8.31256C24.4306 13.1119 23.4472 23.3214 22.9821 25.0192C22.5198 26.7171 21.7101 29.4179 17.5047 29.4179H7.51101C6.81619 29.4179 1.49292 29.149 0.565549 24.0554C-0.359019 18.9647 0.103265 11.9436 0.209731 10.4195C0.316196 8.89812 0.604773 4.68993 5.77395 4.37894C8.98472 4.18843 10.691 4.18843 11.977 4.21925Z" fill="#F885A7"/>
<path d="M11.0044 16.0929C10.9848 15.8464 10.9764 15.6335 10.982 15.4542C10.9876 15.2748 11.038 15.1235 11.1361 15.0003C11.2342 14.877 11.3911 14.7901 11.6068 14.7369C12.0803 14.6332 12.352 14.5828 12.4249 14.5828C12.6714 14.5632 12.8648 14.5632 13.002 14.5828C13.1421 14.6024 13.2374 14.6613 13.2934 14.7593C13.3495 14.8574 13.3999 15.0451 13.4391 15.3225C13.4503 15.3421 13.4531 15.4261 13.4531 15.569C13.4531 15.7119 13.4531 15.8492 13.4615 15.9781C13.4671 16.107 13.4783 16.1714 13.5008 16.1714C13.7669 16.1714 14.3777 16.1882 15.3331 16.2246C16.2885 16.261 16.8936 16.2779 17.1514 16.2779L18.4598 16.1546C18.4906 16.1658 18.5354 16.1882 18.5915 16.2246C18.6475 16.261 18.7176 16.3339 18.7988 16.4404C18.8801 16.5496 18.9109 16.6645 18.8913 16.7878C18.8801 16.8494 18.8128 17.2557 18.6923 18.0037C18.5495 18.0149 18.471 18.0205 18.4598 18.0205C18.4094 18.0205 16.6051 18.0009 13.0525 17.9589C12.8564 17.9589 12.3296 17.9729 11.4639 17.9981C10.601 18.0233 10.1023 18.0373 9.97059 18.0373C9.72404 18.0485 9.09645 18.0429 8.09063 18.0205C7.08482 18.0009 6.46283 17.9841 6.22469 17.9729C6.16305 17.9729 6.01456 17.9841 5.77921 18.0037C5.54387 18.0233 5.39258 18.0345 5.33094 18.0345C5.23848 18.0345 5.16284 18.0261 5.1012 18.0121C5.03956 17.9953 4.99473 17.9645 4.96952 17.9113C4.9443 17.8608 4.92749 17.816 4.92189 17.7796C4.91628 17.7432 4.91068 17.6703 4.90788 17.5554C4.90228 17.4434 4.89947 17.3537 4.89947 17.2921C4.87986 17.1072 4.87986 16.841 4.89947 16.4908C4.91068 16.3059 5.00314 16.2134 5.17684 16.2134C5.4346 16.2022 6.18827 16.2078 7.44063 16.2302C8.693 16.2498 9.46908 16.2554 9.76886 16.2442C9.89214 16.2442 10.304 16.1938 11.0016 16.0901L11.0044 16.0929ZM6.78223 10.4223C6.86348 10.4111 6.97555 10.3886 7.11283 10.3522C7.25292 10.3158 7.37339 10.2906 7.47426 10.2738C7.57792 10.2598 7.67878 10.2458 7.78244 10.2345C9.58115 10.1729 10.9736 10.1421 11.9598 10.1421C13.0805 10.1421 14.2768 10.1785 15.5516 10.2486C15.9102 10.2486 16.1316 10.257 16.2128 10.271C16.2941 10.2878 16.4089 10.3102 16.5518 10.341C16.6947 10.3718 16.8068 10.4195 16.8824 10.4867C16.9609 10.5539 17.0141 10.638 17.0449 10.7417C17.0561 10.7837 17.0701 10.8341 17.0926 10.8958C17.1346 11.0611 17.1598 11.1871 17.1682 11.2824C17.1794 11.3945 17.1878 11.5093 17.199 11.6214C17.241 11.641 17.2523 12.0725 17.2382 12.9158C17.2214 13.7591 17.2158 14.1906 17.2158 14.2102C17.227 14.5184 17.1654 14.7453 17.0309 14.8882C16.8964 15.0311 16.6807 15.1095 16.3837 15.1207C16.2913 15.1207 16.1568 15.1123 15.9831 15.0983C15.8094 15.0815 15.6805 15.0759 15.5964 15.0759C15.1538 15.0871 14.924 14.51 14.9016 13.3501C14.9016 12.9802 14.854 12.7533 14.7559 12.672C14.6579 12.5908 14.4337 12.5376 14.0863 12.5179C14.0359 12.5179 13.9939 12.5123 13.963 12.5011C13.0693 12.4507 12.5202 12.4255 12.3128 12.4255C10.7831 12.3947 9.32339 12.3891 7.93654 12.4087H7.50507C7.41262 12.4087 7.32016 12.3947 7.2277 12.3695C7.13525 12.3442 7.07361 12.3274 7.04279 12.3246C7.01197 12.319 6.98115 12.277 6.95033 12.2014C6.91951 12.1257 6.9027 12.0669 6.9027 12.0333C6.9027 11.9996 6.8971 11.9072 6.8887 11.7643C6.87749 11.6214 6.86908 11.5009 6.85788 11.4085C6.80745 10.7613 6.78223 10.4335 6.78223 10.4223ZM11.4359 18.4352C12.0327 18.4352 12.7303 18.4828 13.5316 18.5809C14.3329 18.6789 15.0109 18.805 15.5656 18.9591C16.5098 19.2365 17.0337 19.7296 17.1374 20.4384C17.1682 20.6233 17.185 20.7942 17.185 20.9483C17.185 21.6375 16.9132 22.1867 16.3669 22.5957C15.9971 22.8731 15.6917 23.0916 15.4508 23.2513C15.2098 23.411 14.9044 23.5623 14.5346 23.7052C14.1648 23.8481 13.7949 23.9266 13.4251 23.9378C13.2822 23.9378 12.9096 23.9546 12.3072 23.991C11.7077 24.0274 11.3042 24.0442 11.0969 24.0442C10.8083 24.0442 10.5533 24.0246 10.3264 23.9826C10.276 23.9826 10.2031 23.9714 10.1107 23.9518C9.67921 23.8789 9.35141 23.8201 9.12447 23.7753C8.89753 23.7304 8.62296 23.6352 8.30076 23.4895C7.97576 23.3466 7.70119 23.1617 7.47706 22.9347C7.0652 22.5341 6.86068 22.1587 6.86068 21.8085C6.86068 21.0884 6.96434 20.5561 7.16887 20.2059C7.74322 19.2393 8.92555 18.6649 10.713 18.48C10.9484 18.4492 11.1921 18.4324 11.4359 18.4324V18.4352ZM13.6997 22.0242C13.9574 22.0242 14.176 21.9205 14.3553 21.716C14.5346 21.5115 14.6242 21.2593 14.6242 20.9595C14.6242 20.5281 14.3889 20.2619 13.9154 20.1582C13.4111 20.0546 12.4109 20.0041 10.9092 20.0041H10.8952C10.7523 20.0041 10.6262 20.0294 10.5169 20.0798C10.4105 20.1302 10.3208 20.2115 10.2564 20.3179C10.1891 20.4244 10.1443 20.5197 10.1163 20.6037C10.0911 20.685 10.0574 20.8026 10.0154 20.9567C9.9958 21.0296 9.9846 21.0968 9.9846 21.1585C9.9846 21.3238 10.0434 21.4554 10.1611 21.5591C10.2788 21.6628 10.4245 21.7272 10.601 21.7608C10.7747 21.8028 11.0128 21.8365 11.3098 21.8673C11.6068 21.8981 11.8702 21.9177 12.0943 21.9289C12.3212 21.9401 12.6098 21.9541 12.9656 21.9738C13.3186 21.9934 13.5484 22.0102 13.652 22.0214H13.6997V22.0242Z" fill="#BC3C6A"/>
<path d="M11.0044 16.9333C10.9848 16.6867 10.9764 16.4738 10.982 16.2945C10.9876 16.1152 11.038 15.9639 11.1361 15.8406C11.2342 15.7173 11.3911 15.6305 11.6068 15.5772C12.0803 15.4736 12.352 15.4231 12.4249 15.4231C12.6714 15.4035 12.8648 15.4035 13.002 15.4231C13.1421 15.4428 13.2374 15.5016 13.2934 15.5997C13.3495 15.6977 13.3999 15.8854 13.4391 16.1628C13.4503 16.1824 13.4531 16.2665 13.4531 16.4094C13.4531 16.5522 13.4531 16.6895 13.4615 16.8184C13.4671 16.9473 13.4783 17.0117 13.5008 17.0117C13.7669 17.0117 14.3777 17.0285 15.3331 17.065C16.2885 17.1014 16.8936 17.1182 17.1514 17.1182L18.4598 16.9949C18.4906 17.0061 18.5354 17.0285 18.5915 17.065C18.6475 17.1014 18.7176 17.1742 18.7988 17.2807C18.8801 17.39 18.9109 17.5048 18.8913 17.6281C18.8801 17.6897 18.8128 18.096 18.6923 18.844C18.5495 18.8553 18.471 18.8609 18.4598 18.8609C18.4094 18.8609 16.6051 18.8412 13.0525 18.7992C12.8564 18.7992 12.3296 18.8132 11.4639 18.8384C10.601 18.8637 10.1023 18.8777 9.97059 18.8777C9.72404 18.8889 9.09645 18.8833 8.09063 18.8609C7.08482 18.8412 6.46283 18.8244 6.22469 18.8132C6.16305 18.8132 6.01456 18.8244 5.77921 18.844C5.54387 18.8637 5.39258 18.8749 5.33094 18.8749C5.23848 18.8749 5.16284 18.8665 5.1012 18.8525C5.03956 18.8356 4.99473 18.8048 4.96952 18.7516C4.9443 18.7012 4.92749 18.6563 4.92189 18.6199C4.91628 18.5835 4.91068 18.5106 4.90788 18.3958C4.90228 18.2837 4.89947 18.194 4.89947 18.1324C4.87986 17.9475 4.87986 17.6813 4.89947 17.3311C4.91068 17.1462 5.00314 17.0537 5.17684 17.0537C5.4346 17.0425 6.18827 17.0481 7.44063 17.0706C8.693 17.0902 9.46908 17.0958 9.76886 17.0846C9.89214 17.0846 10.304 17.0341 11.0016 16.9305L11.0044 16.9333ZM6.78223 11.2626C6.86348 11.2514 6.97555 11.229 7.11283 11.1926C7.25292 11.1561 7.37339 11.1309 7.47426 11.1141C7.57792 11.1001 7.67878 11.0861 7.78244 11.0749C9.58115 11.0132 10.9736 10.9824 11.9598 10.9824C13.0805 10.9824 14.2768 11.0188 15.5516 11.0889C15.9102 11.0889 16.1316 11.0973 16.2128 11.1113C16.2941 11.1281 16.4089 11.1505 16.5518 11.1813C16.6947 11.2122 16.8068 11.2598 16.8824 11.327C16.9609 11.3943 17.0141 11.4783 17.0449 11.582C17.0561 11.624 17.0701 11.6744 17.0926 11.7361C17.1346 11.9014 17.1598 12.0275 17.1682 12.1227C17.1794 12.2348 17.1878 12.3497 17.199 12.4617C17.241 12.4813 17.2523 12.9128 17.2382 13.7561C17.2214 14.5994 17.2158 15.0309 17.2158 15.0505C17.227 15.3587 17.1654 15.5856 17.0309 15.7285C16.8964 15.8714 16.6807 15.9499 16.3837 15.9611C16.2913 15.9611 16.1568 15.9527 15.9831 15.9387C15.8094 15.9219 15.6805 15.9163 15.5964 15.9163C15.1538 15.9275 14.924 15.3503 14.9016 14.1904C14.9016 13.8206 14.854 13.5936 14.7559 13.5124C14.6579 13.4311 14.4337 13.3779 14.0863 13.3583C14.0359 13.3583 13.9939 13.3527 13.963 13.3415C13.0693 13.291 12.5202 13.2658 12.3128 13.2658C10.7831 13.235 9.32339 13.2294 7.93654 13.249H7.50507C7.41262 13.249 7.32016 13.235 7.2277 13.2098C7.13525 13.1846 7.07361 13.1678 7.04279 13.165C7.01197 13.1594 6.98115 13.1173 6.95033 13.0417C6.91951 12.966 6.9027 12.9072 6.9027 12.8736C6.9027 12.84 6.8971 12.7475 6.8887 12.6046C6.87749 12.4617 6.86908 12.3413 6.85788 12.2488C6.80745 11.6016 6.78223 11.2738 6.78223 11.2626ZM11.4359 19.2755C12.0327 19.2755 12.7303 19.3231 13.5316 19.4212C14.3329 19.5193 15.0109 19.6453 15.5656 19.7994C16.5098 20.0768 17.0337 20.5699 17.1374 21.2787C17.1682 21.4637 17.185 21.6346 17.185 21.7887C17.185 22.4779 16.9132 23.027 16.3669 23.4361C15.9971 23.7134 15.6917 23.932 15.4508 24.0917C15.2098 24.2514 14.9044 24.4027 14.5346 24.5455C14.1648 24.6884 13.7949 24.7669 13.4251 24.7781C13.2822 24.7781 12.9096 24.7949 12.3072 24.8313C11.7077 24.8677 11.3042 24.8846 11.0969 24.8846C10.8083 24.8846 10.5533 24.8649 10.3264 24.8229C10.276 24.8229 10.2031 24.8117 10.1107 24.7921C9.67921 24.7193 9.35141 24.6604 9.12447 24.6156C8.89753 24.5708 8.62296 24.4755 8.30076 24.3298C7.97576 24.1869 7.70119 24.002 7.47706 23.7751C7.0652 23.3744 6.86068 22.999 6.86068 22.6488C6.86068 21.9287 6.96434 21.3964 7.16887 21.0462C7.74322 20.0796 8.92555 19.5053 10.713 19.3203C10.9484 19.2895 11.1921 19.2727 11.4359 19.2727V19.2755ZM13.6997 22.8645C13.9574 22.8645 14.176 22.7609 14.3553 22.5563C14.5346 22.3518 14.6242 22.0996 14.6242 21.7999C14.6242 21.3684 14.3889 21.1022 13.9154 20.9986C13.4111 20.8949 12.4109 20.8445 10.9092 20.8445H10.8952C10.7523 20.8445 10.6262 20.8697 10.5169 20.9201C10.4105 20.9706 10.3208 21.0518 10.2564 21.1583C10.1891 21.2647 10.1443 21.36 10.1163 21.444C10.0911 21.5253 10.0574 21.643 10.0154 21.7971C9.9958 21.8699 9.9846 21.9371 9.9846 21.9988C9.9846 22.1641 10.0434 22.2958 10.1611 22.3994C10.2788 22.5031 10.4245 22.5675 10.601 22.6012C10.7747 22.6432 11.0128 22.6768 11.3098 22.7076C11.6068 22.7384 11.8702 22.7581 12.0943 22.7693C12.3212 22.7805 12.6098 22.7945 12.9656 22.8141C13.3186 22.8337 13.5484 22.8505 13.652 22.8617H13.6997V22.8645Z" fill="white"/>
<path d="M35.2083 5.69838C34.7516 5.69838 33.065 5.76842 32.6111 5.79924C30.9861 5.91692 26.3241 6.61734 26.1391 10.7723C25.915 15.807 26.0635 23.8451 26.7023 26.0249C27.3411 28.2046 29.4171 30.1266 32.8997 30.4572C35.8583 30.7374 42.8178 31.3593 45.146 29.8184C48.2503 27.7647 48.9031 26.2882 49.2785 21.0294C49.654 15.7706 51.3434 8.36842 46.2723 6.60334C42.1734 5.17726 35.9031 5.69838 35.2055 5.69838H35.2083Z" fill="#418099"/>
<path d="M35.2083 4.2975C34.7516 4.2975 33.065 4.36754 32.6111 4.39836C30.9861 4.51604 26.3241 5.21647 26.1391 9.37142C25.915 14.4061 26.0635 22.4442 26.7023 24.624C27.3411 26.8037 29.4171 28.7257 32.8997 29.0563C35.8583 29.3365 42.8178 29.9585 45.146 28.4175C48.2503 26.3638 48.9031 24.8873 49.2785 19.6285C49.654 14.3697 51.3434 6.96754 46.2723 5.20246C42.1734 3.77638 35.9031 4.2975 35.2055 4.2975H35.2083Z" fill="#97CFDB"/>
<path d="M39.5189 21.8361C39.4881 22.0014 39.4432 22.2536 39.3872 22.5982C39.3312 22.9428 39.2919 23.1557 39.2723 23.237C39.2303 23.4639 39.0986 23.5956 38.8717 23.6376C38.6447 23.6796 38.1152 23.7105 37.2831 23.7301C37.0786 23.7413 36.9553 23.618 36.9133 23.3602V22.713C36.9133 22.6402 36.9133 22.5674 36.9217 22.4889C36.9301 22.4105 36.9217 22.3516 36.9133 22.3124C36.9021 22.2704 36.8993 22.2339 36.8993 22.1975C36.8993 22.1611 36.8853 22.1331 36.86 22.1135C36.8348 22.0939 36.8124 22.0742 36.7984 22.0602C36.7844 22.0434 36.748 22.0294 36.6919 22.0126C36.6359 21.9958 36.5883 21.9874 36.5519 21.9818C36.5154 21.9762 36.451 21.965 36.3585 21.9426C36.1848 21.9117 35.4312 21.8753 34.1004 21.8361C32.7695 21.7941 31.9654 21.7745 31.6881 21.7745C31.5144 21.7745 31.3743 21.6652 31.2706 21.4523C31.0745 21.0096 31.0605 20.4773 31.223 19.8497C31.2426 19.7376 31.3827 19.6536 31.6404 19.6031C31.6713 19.5835 31.9795 19.5751 32.565 19.5807C33.1506 19.5863 33.4588 19.5891 33.4896 19.5891C33.8174 19.5779 34.77 19.5555 36.3389 19.5191C37.9107 19.4827 38.8297 19.4602 39.0986 19.449C39.418 19.4294 40.2781 19.4126 41.679 19.4014C43.0799 19.3902 43.8643 19.3874 44.0296 19.3874C44.2566 19.3762 44.4359 19.5275 44.5676 19.8329C44.7833 20.2839 44.8309 20.7378 44.7077 21.1889C44.6656 21.343 44.5424 21.4551 44.3378 21.5279C44.1109 21.6204 43.3096 21.6876 41.934 21.7268C40.5583 21.7689 39.8383 21.7885 39.7766 21.7885L39.5133 21.8361H39.5189ZM35.5432 12.7137L40.4126 12.4503V10.6012C40.6284 10.5508 40.8581 10.5115 41.1047 10.4863C41.3512 10.4611 41.5613 10.4499 41.735 10.4555C41.9087 10.4611 42.1413 10.4667 42.4299 10.4723C42.7184 10.4779 42.9286 10.4807 43.0603 10.4807C43.1331 10.4807 43.2087 10.5256 43.2928 10.6124C43.374 10.6993 43.4273 10.7805 43.4469 10.8506C43.7243 12.0721 43.884 12.921 43.926 13.3945C43.9456 13.5598 43.9456 13.7251 43.926 13.896C43.9064 14.0641 43.8728 14.2799 43.8251 14.5348C43.7775 14.7926 43.7495 14.9551 43.7411 15.0279C43.7215 15.1204 43.6066 15.7676 43.4021 16.9695C42.682 17.0312 42.3038 17.062 42.2618 17.062C39.3144 17.174 37.5661 17.2301 37.0225 17.2301C36.2101 17.2301 35.0389 17.1432 33.5092 16.9667C33.0889 16.9163 32.7499 16.7482 32.5006 16.4652C32.2484 16.1822 32.1223 15.8404 32.1223 15.4398L32.1055 13.7307C32.0943 13.4842 32.0663 13.1256 32.0215 12.6521C31.9739 12.1786 31.9458 11.8312 31.9374 11.6042C31.9374 11.5314 31.9514 11.4529 31.9851 11.3661C32.0159 11.2792 32.0579 11.2204 32.1083 11.1896C32.7443 10.8814 33.3579 10.7749 33.9435 10.8674C34.5094 10.9486 34.812 10.9906 34.8512 10.9906C35.109 10.9906 35.2855 11.0523 35.3835 11.1756C35.4816 11.2988 35.5348 11.4781 35.546 11.7135V12.7165L35.5432 12.7137ZM35.7422 14.0529C35.731 14.1034 35.7169 14.1874 35.6945 14.2995C35.6749 14.4115 35.6581 14.5152 35.6469 14.6077C35.6357 14.7001 35.6357 14.7926 35.6469 14.885C35.6581 15.3473 35.7197 15.6331 35.8318 15.7396C35.9439 15.8488 36.2269 15.9021 36.6807 15.9021C37.8827 15.8824 38.8829 15.8544 39.6842 15.8264C40.1156 15.8152 40.407 15.7564 40.5555 15.6499C40.704 15.5406 40.8189 15.3137 40.9029 14.9635C40.9842 14.6049 40.9225 14.3023 40.718 14.0613C40.5135 13.8204 40.2109 13.7083 39.8075 13.7307C39.5609 13.7419 38.2049 13.8484 35.7394 14.0529H35.7422Z" fill="#418099"/>
<path d="M39.5189 22.6764C39.4881 22.8417 39.4432 23.0939 39.3872 23.4385C39.3312 23.7831 39.2919 23.996 39.2723 24.0773C39.2303 24.3042 39.0986 24.4359 38.8717 24.4779C38.6447 24.52 38.1152 24.5508 37.2831 24.5704C37.0786 24.5816 36.9553 24.4583 36.9133 24.2006V23.5534C36.9133 23.4805 36.9133 23.4077 36.9217 23.3292C36.9301 23.2508 36.9217 23.1919 36.9133 23.1527C36.9021 23.1107 36.8993 23.0743 36.8993 23.0379C36.8993 23.0014 36.8853 22.9734 36.86 22.9538C36.8348 22.9342 36.8124 22.9146 36.7984 22.9006C36.7844 22.8838 36.748 22.8698 36.6919 22.8529C36.6359 22.8361 36.5883 22.8277 36.5519 22.8221C36.5154 22.8165 36.451 22.8053 36.3585 22.7829C36.1848 22.7521 35.4312 22.7157 34.1004 22.6764C32.7695 22.6344 31.9654 22.6148 31.6881 22.6148C31.5144 22.6148 31.3743 22.5055 31.2706 22.2926C31.0745 21.8499 31.0605 21.3176 31.223 20.69C31.2426 20.5779 31.3827 20.4939 31.6404 20.4435C31.6713 20.4239 31.9795 20.4154 32.565 20.421C33.1506 20.4267 33.4588 20.4295 33.4896 20.4295C33.8174 20.4182 34.77 20.3958 36.3389 20.3594C37.9107 20.323 38.8297 20.3006 39.0986 20.2894C39.418 20.2698 40.2781 20.2529 41.679 20.2417C43.0799 20.2305 43.8643 20.2277 44.0296 20.2277C44.2566 20.2165 44.4359 20.3678 44.5676 20.6732C44.7833 21.1243 44.8309 21.5782 44.7077 22.0292C44.6656 22.1833 44.5424 22.2954 44.3378 22.3682C44.1109 22.4607 43.3096 22.5279 41.934 22.5672C40.5583 22.6092 39.8383 22.6288 39.7766 22.6288L39.5133 22.6764H39.5189ZM35.5432 13.554L40.4126 13.2907V11.4415C40.6284 11.3911 40.8581 11.3519 41.1047 11.3267C41.3512 11.3015 41.5613 11.2902 41.735 11.2958C41.9087 11.3015 42.1413 11.3071 42.4299 11.3127C42.7184 11.3183 42.9286 11.3211 43.0603 11.3211C43.1331 11.3211 43.2087 11.3659 43.2928 11.4527C43.374 11.5396 43.4273 11.6208 43.4469 11.6909C43.7243 12.9124 43.884 13.7614 43.926 14.2349C43.9456 14.4002 43.9456 14.5655 43.926 14.7364C43.9064 14.9045 43.8728 15.1202 43.8251 15.3752C43.7775 15.6329 43.7495 15.7954 43.7411 15.8683C43.7215 15.9607 43.6066 16.6079 43.4021 17.8098C42.682 17.8715 42.3038 17.9023 42.2618 17.9023C39.3144 18.0144 37.5661 18.0704 37.0225 18.0704C36.2101 18.0704 35.0389 17.9836 33.5092 17.807C33.0889 17.7566 32.7499 17.5885 32.5006 17.3055C32.2484 17.0226 32.1223 16.6808 32.1223 16.2801L32.1055 14.5711C32.0943 14.3245 32.0663 13.9659 32.0215 13.4924C31.9739 13.0189 31.9458 12.6715 31.9374 12.4446C31.9374 12.3717 31.9514 12.2933 31.9851 12.2064C32.0159 12.1196 32.0579 12.0607 32.1083 12.0299C32.7443 11.7217 33.3579 11.6152 33.9435 11.7077C34.5094 11.7889 34.812 11.831 34.8512 11.831C35.109 11.831 35.2855 11.8926 35.3835 12.0159C35.4816 12.1392 35.5348 12.3185 35.546 12.5538V13.5568L35.5432 13.554ZM35.7422 14.8933C35.731 14.9437 35.7169 15.0277 35.6945 15.1398C35.6749 15.2519 35.6581 15.3555 35.6469 15.448C35.6357 15.5405 35.6357 15.6329 35.6469 15.7254C35.6581 16.1877 35.7197 16.4734 35.8318 16.5799C35.9439 16.6892 36.2269 16.7424 36.6807 16.7424C37.8827 16.7228 38.8829 16.6948 39.6842 16.6667C40.1156 16.6555 40.407 16.5967 40.5555 16.4902C40.704 16.381 40.8189 16.154 40.9029 15.8038C40.9842 15.4452 40.9225 15.1426 40.718 14.9017C40.5135 14.6607 40.2109 14.5486 39.8075 14.5711C39.5609 14.5823 38.2049 14.6887 35.7394 14.8933H35.7422Z" fill="white"/>
<path d="M55.3903 12.3077C55.3903 12.3077 52.4485 13.5208 52.1795 17.6982C51.9105 21.8755 52.314 26.0725 53.034 27.8376C53.7541 29.6027 55.1913 30.771 58.1107 30.771C61.0301 30.771 62.8288 30.6141 65.6137 30.771C67.2836 30.8662 69.3877 31.0848 70.5111 28.4792C71.6346 25.8736 71.0042 17.474 70.0405 14.507C69.4045 12.5542 67.97 11.0077 62.9661 11.2262C58.3377 11.4279 57.2618 11.4279 55.3959 12.3049L55.3903 12.3077Z" fill="#C18E1B"/>
<path d="M55.3903 10.9068C55.3903 10.9068 52.4485 12.1199 52.1795 16.2973C51.9105 20.4746 52.314 24.6716 53.034 26.4367C53.7541 28.2018 55.1913 29.3701 58.1107 29.3701C61.0301 29.3701 62.8288 29.2132 65.6137 29.3701C67.2836 29.4654 69.3877 29.6839 70.5111 27.0783C71.6346 24.4727 71.0042 16.0731 70.0405 13.1061C69.4045 11.1533 67.97 9.60678 62.9661 9.82531C58.3377 10.027 57.2618 10.027 55.3959 10.904L55.3903 10.9068Z" fill="#FED054"/>
<path d="M58.9625 14.3726C59.0326 14.381 59.1418 14.395 59.2931 14.4202C59.4416 14.4426 59.5761 14.465 59.6938 14.4846C59.8114 14.5042 59.9207 14.5295 60.0244 14.5603C60.0552 14.5771 60.1729 14.6163 60.3718 14.6779C60.5707 14.7396 60.708 14.7844 60.778 14.8068C60.8481 14.8292 60.9602 14.8685 61.1142 14.9245C61.2683 14.9805 61.3972 15.0338 61.5093 15.0842C61.6186 15.1346 61.7278 15.1879 61.8399 15.2439C62.2489 15.4708 62.5123 15.7762 62.6328 16.1629C62.7533 16.5467 62.7392 16.9557 62.5908 17.3872C62.3946 18.0316 62.1593 18.6256 61.8847 19.1747C61.8147 19.3092 61.7138 19.4325 61.5849 19.5501C61.4561 19.6678 61.3244 19.7491 61.1899 19.7967C60.2401 20.1273 59.5229 20.3094 59.0354 20.3486C58.2817 20.4103 57.6737 20.2282 57.2115 19.7967C56.9369 19.5389 56.7436 19.1215 56.6343 18.5499C56.3681 17.1379 56.7099 15.9387 57.6569 14.9497C58.0099 14.5799 58.4442 14.3894 58.9625 14.3726ZM64.1037 22.7497C62.9045 22.9066 62.2602 22.9935 62.1733 23.0075C61.7026 23.0775 60.8229 23.1335 59.5313 23.1728C58.2397 23.212 57.3515 23.1952 56.8668 23.1251C56.8192 23.1167 56.7716 23.0887 56.7183 23.0439C56.6679 22.9963 56.6427 22.9542 56.6427 22.915C56.6119 22.4611 56.6119 22.0913 56.6427 21.8083C56.6595 21.6122 56.7408 21.3797 56.8893 21.1135C57.3992 20.9734 57.7522 20.895 57.9483 20.8782C58.0884 20.8557 58.7608 20.8641 59.9655 20.9062C61.1703 20.9482 61.8315 20.9706 61.9492 20.9706C62.0977 20.9622 62.3218 20.9566 62.6188 20.9538C62.9158 20.951 63.1399 20.9454 63.2884 20.937L64.1345 20.8557C64.1905 19.5221 64.2214 18.7853 64.2298 18.6424L64.4175 14.2521C64.4399 14.2213 64.4791 14.1848 64.5351 14.1456C64.5912 14.1064 64.7117 14.0504 64.8994 13.9803C65.0871 13.9103 65.2832 13.8655 65.4877 13.8514C65.5886 13.843 65.7203 13.8514 65.8772 13.8683C66.0341 13.8879 66.1685 13.9131 66.2778 13.9439L66.4431 13.9803C66.4739 14.0111 66.516 14.0504 66.5664 14.0924C66.6168 14.1344 66.6757 14.2213 66.7429 14.3501C66.8101 14.479 66.827 14.5995 66.7961 14.7088C66.6869 15.0394 66.6028 16.1376 66.5496 18.0092C66.4935 19.8807 66.4599 20.8754 66.4431 20.993C66.4347 21.0883 66.4319 21.2732 66.4375 21.5506C66.4403 21.8279 66.4263 22.0129 66.3955 22.0969C66.3731 22.1922 66.3647 22.4667 66.3787 22.9206C66.3927 23.3745 66.3787 23.6435 66.3479 23.7219C66.2778 23.9404 66.1798 24.0917 66.0537 24.1702C65.9276 24.2486 65.7427 24.2878 65.5017 24.2878C65.1011 24.2794 64.8041 24.2598 64.608 24.229C64.3334 24.173 64.213 24.0161 64.2438 23.7583C64.2522 23.6967 64.2298 23.537 64.1793 23.282C64.1289 23.0271 64.1037 22.8478 64.1037 22.7469V22.7497ZM60.5035 17.3844C60.5035 17.0398 60.4362 16.7932 60.3046 16.642C60.1701 16.4935 59.9543 16.4178 59.6574 16.4178C59.3127 16.4178 59.0074 16.5523 58.7384 16.8241C58.4722 17.0958 58.3349 17.4068 58.3265 17.7598C58.3265 17.956 58.447 18.1633 58.6908 18.379C58.9345 18.5948 59.1643 18.69 59.3856 18.6676C59.677 18.6368 59.9347 18.5023 60.1617 18.267C60.3886 18.0316 60.5035 17.7374 60.5035 17.3844Z" fill="#C18E1B"/>
<path d="M58.9625 15.2134C59.0326 15.2218 59.1418 15.2358 59.2931 15.261C59.4416 15.2834 59.5761 15.3058 59.6938 15.3255C59.8114 15.3451 59.9207 15.3703 60.0244 15.4011C60.0552 15.4179 60.1729 15.4571 60.3718 15.5188C60.5707 15.5804 60.708 15.6252 60.778 15.6476C60.8481 15.6701 60.9602 15.7093 61.1142 15.7653C61.2683 15.8214 61.3972 15.8746 61.5093 15.925C61.6186 15.9755 61.7278 16.0287 61.8399 16.0847C62.2489 16.3117 62.5123 16.617 62.6328 17.0037C62.7533 17.3875 62.7392 17.7966 62.5908 18.228C62.3946 18.8724 62.1593 19.4664 61.8847 20.0155C61.8147 20.15 61.7138 20.2733 61.5849 20.391C61.4561 20.5086 61.3244 20.5899 61.1899 20.6375C60.2401 20.9681 59.5229 21.1502 59.0354 21.1895C58.2817 21.2511 57.6737 21.069 57.2115 20.6375C56.9369 20.3798 56.7436 19.9623 56.6343 19.3907C56.3681 17.9787 56.7099 16.7795 57.6569 15.7905C58.0099 15.4207 58.4442 15.2302 58.9625 15.2134ZM64.1037 23.5905C62.9045 23.7474 62.2602 23.8343 62.1733 23.8483C61.7026 23.9183 60.8229 23.9744 59.5313 24.0136C58.2397 24.0528 57.3515 24.036 56.8668 23.966C56.8192 23.9575 56.7716 23.9295 56.7183 23.8847C56.6679 23.8371 56.6427 23.795 56.6427 23.7558C56.6119 23.3019 56.6119 22.9321 56.6427 22.6491C56.6595 22.453 56.7408 22.2205 56.8893 21.9543C57.3992 21.8142 57.7522 21.7358 57.9483 21.719C58.0884 21.6966 58.7608 21.705 59.9655 21.747C61.1703 21.789 61.8315 21.8114 61.9492 21.8114C62.0977 21.803 62.3218 21.7974 62.6188 21.7946C62.9158 21.7918 63.1399 21.7862 63.2884 21.7778L64.1345 21.6966C64.1905 20.3629 64.2214 19.6261 64.2298 19.4832L64.4175 15.0929C64.4399 15.0621 64.4791 15.0257 64.5351 14.9864C64.5912 14.9472 64.7117 14.8912 64.8994 14.8211C65.0871 14.7511 65.2832 14.7063 65.4877 14.6923C65.5886 14.6839 65.7203 14.6923 65.8772 14.7091C66.0341 14.7287 66.1685 14.7539 66.2778 14.7847L66.4431 14.8211C66.4739 14.852 66.516 14.8912 66.5664 14.9332C66.6168 14.9752 66.6757 15.0621 66.7429 15.191C66.8101 15.3198 66.827 15.4403 66.7961 15.5496C66.6869 15.8802 66.6028 16.9785 66.5496 18.85C66.4935 20.7216 66.4599 21.7162 66.4431 21.8338C66.4347 21.9291 66.4319 22.114 66.4375 22.3914C66.4403 22.6688 66.4263 22.8537 66.3955 22.9377C66.3731 23.033 66.3647 23.3076 66.3787 23.7614C66.3927 24.2153 66.3787 24.4843 66.3479 24.5627C66.2778 24.7813 66.1798 24.9325 66.0537 25.011C65.9276 25.0894 65.7427 25.1287 65.5017 25.1287C65.1011 25.1203 64.8041 25.1007 64.608 25.0698C64.3334 25.0138 64.213 24.8569 64.2438 24.5991C64.2522 24.5375 64.2298 24.3778 64.1793 24.1229C64.1289 23.8679 64.1037 23.6886 64.1037 23.5877V23.5905ZM60.5035 18.2252C60.5035 17.8806 60.4362 17.6341 60.3046 17.4828C60.1701 17.3343 59.9543 17.2586 59.6574 17.2586C59.3127 17.2586 59.0074 17.3931 58.7384 17.6649C58.4722 17.9367 58.3349 18.2476 58.3265 18.6007C58.3265 18.7968 58.447 19.0041 58.6908 19.2198C58.9345 19.4356 59.1643 19.5308 59.3856 19.5084C59.677 19.4776 59.9347 19.3431 60.1617 19.1078C60.3886 18.8724 60.5035 18.5782 60.5035 18.2252Z" fill="white"/>
</svg>
