<svg width="38" height="24" viewBox="0 0 38 24" fill="none" xmlns="http://www.w3.org/2000/svg">
<path d="M29.2897 7C28.6112 7 28.0611 7.35369 28.0611 7.79V16.63C28.0611 18.4912 25.7145 20 22.8198 20H13.9858C11.0911 20 8.74446 18.4912 8.74446 16.63V7.79C8.74446 7.35369 8.19436 7 7.51578 7C6.83721 7 6.28711 7.35369 6.28711 7.79V16.63C6.32976 19.3719 9.79891 21.5801 14.0635 21.58H22.8975C27.1318 21.5529 30.554 19.3525 30.5962 16.63V7.79C30.5969 7.57152 30.4568 7.36262 30.2093 7.21294C29.9617 7.06326 29.6289 6.98617 29.2897 7Z" fill="#F50E0E"/>
<path fill-rule="evenodd" clip-rule="evenodd" d="M29.2897 5.58H7.51578C6.83721 5.58 6.28711 5.22631 6.28711 4.79C6.28711 4.35369 6.83721 4 7.51578 4H11.6373L13.4725 2.72C14.1741 2.26141 15.1316 2.00218 16.132 2H20.6735C21.6593 1.99999 22.6048 2.25179 23.3019 2.7L25.1682 4H29.2897C29.9683 4 30.5184 4.35369 30.5184 4.79C30.5184 5.22631 29.9683 5.58 29.2897 5.58ZM20.6735 3.58H16.132C15.8211 3.58007 15.5215 3.65499 15.2922 3.79L14.9967 3.99H21.8088L21.5133 3.79C21.2857 3.65326 20.985 3.57807 20.6735 3.58Z" fill="#F50E0E"/>
<path d="M12.5704 8.79V11.79C12.5704 12.2042 13.0927 12.54 13.7369 12.54C14.3811 12.54 14.9034 12.2042 14.9034 11.79V8.79C14.9034 8.37579 14.3811 8.04 13.7369 8.04C13.0927 8.04 12.5704 8.37579 12.5704 8.79Z" fill="#F50E0E"/>
<path d="M17.2363 8.79V16.79C17.2363 17.2042 17.7585 17.54 18.4028 17.54C19.047 17.54 19.5692 17.2042 19.5692 16.79V8.79C19.5692 8.37579 19.047 8.04 18.4028 8.04C17.7585 8.04 17.2363 8.37579 17.2363 8.79Z" fill="#F50E0E"/>
<path d="M21.9021 8.79V11.79C21.9021 12.2042 22.4244 12.54 23.0686 12.54C23.7128 12.54 24.2351 12.2042 24.2351 11.79V8.79C24.2351 8.37579 23.7128 8.04 23.0686 8.04C22.4244 8.04 21.9021 8.37579 21.9021 8.79Z" fill="#F50E0E"/>
</svg>
