<svg width="19" height="20" viewBox="0 0 19 20" fill="none" xmlns="http://www.w3.org/2000/svg">
<path fill-rule="evenodd" clip-rule="evenodd" d="M2.10329 11.0749C2.10329 7.13984 5.29326 3.94987 9.22829 3.94987C13.1633 3.94987 16.3533 7.13984 16.3533 11.0749C16.3533 15.0099 13.1633 18.1999 9.22829 18.1999C5.29326 18.1999 2.10329 15.0099 2.10329 11.0749ZM3.29079 11.0749C3.29079 14.3541 5.9491 17.0124 9.22829 17.0124C10.803 17.0124 12.3132 16.3868 13.4267 15.2733C14.5402 14.1598 15.1658 12.6496 15.1658 11.0749C15.1658 7.79567 12.5075 5.13737 9.22829 5.13737C5.9491 5.13737 3.29079 7.79567 3.29079 11.0749Z" fill="#414141"/>
<path d="M7.36788 8.05862C7.13393 7.84062 6.76937 7.84706 6.54326 8.07317C6.31715 8.29927 6.31072 8.66384 6.52871 8.89778L8.63454 11.0036V14.2415C8.63454 14.5695 8.90038 14.8353 9.22829 14.8353C9.55621 14.8353 9.82204 14.5695 9.82204 14.2415V10.7582C9.82191 10.6008 9.75926 10.4499 9.64788 10.3386L7.36788 8.05862Z" fill="#414141"/>
<path d="M16.7729 5.13737C15.7955 3.83389 14.4972 2.80566 13.0045 2.15278C12.8589 2.08675 12.6927 2.08228 12.5437 2.1404C12.3947 2.19852 12.2754 2.3143 12.2129 2.46153C12.1445 2.60692 12.1389 2.774 12.1972 2.92367C12.2556 3.07335 12.3729 3.19248 12.5216 3.2532C13.8255 3.82687 14.9597 4.72659 15.815 5.8657C15.9271 6.01521 16.1031 6.1032 16.29 6.1032C16.4185 6.10378 16.5437 6.06205 16.6462 5.98445C16.7781 5.89096 16.8661 5.74776 16.89 5.58789C16.9139 5.42803 16.8716 5.26534 16.7729 5.13737Z" fill="#414141"/>
<path d="M2.63371 5.84987C3.48901 4.71075 4.6232 3.81104 5.92704 3.23737C6.07578 3.17665 6.19306 3.05752 6.25144 2.90784C6.30981 2.75816 6.30416 2.59108 6.23579 2.4457C6.17329 2.29847 6.05402 2.18268 5.905 2.12456C5.75598 2.06645 5.58981 2.07091 5.44413 2.13695C3.95249 2.79542 2.65692 3.82915 1.68371 5.13737C1.5127 5.39228 1.56419 5.73551 1.80246 5.92903C1.90496 6.00663 2.03015 6.04836 2.15871 6.04778C2.33889 6.05741 2.51368 5.98459 2.63371 5.84987Z" fill="#414141"/>
</svg>
